<svg xmlns="http://www.w3.org/2000/svg" xmlns:xlink="http://www.w3.org/1999/xlink" fill="none" height="40" viewBox="0 0 155 40" width="155"><clipPath id="a"><path d="m46.3291 10.9231h108.477v18.032h-108.477z"></path></clipPath><mask id="b" height="40" maskUnits="userSpaceOnUse" width="40" x="0" y="0"><path d="m20 40c11.0457 0 20-8.9543 20-20s-8.9543-20-20-20-20 8.9543-20 20 8.9543 20 20 20z" fill="#fff"></path></mask><mask id="c" height="40" maskUnits="userSpaceOnUse" width="40" x="0" y="0"><path d="m20 40c11.0457 0 20-8.9543 20-20s-8.9543-20-20-20-20 8.9543-20 20 8.9543 20 20 20z" fill="#fff"></path></mask><g mask="url(#b)"><path d="m7.87424 35.9057c-3.74783-10.8623.44492-19.1739 10.98406-23.6218l-12.22464-7.15939-16.83046 7.00149 12.36234 25.7478z" fill="#ebae19"></path><path d="m31.4568-1.10295-5.984 12.99275c-10.945 5.1971-21.88988-4.4884-25.47249006 9.6087l-7.83477994-13.3884 24.58987-10.11449z" fill="#d01128"></path></g><g mask="url(#c)"><path d="m32.1261 4.09409c3.7479 10.86231-.4449 19.17391-10.984 23.62171l12.2246 7.1595 16.8305-7.0029-12.3624-25.74642z" fill="#06599c"></path><path d="m8.54346 41.1029 5.98404-12.9927c10.9449-5.1971 21.8899 4.4884 25.4725-9.6087l7.8348 13.3884-24.5899 10.1145z" fill="#279828"></path></g><g fill="#908f96"><path d="m61.5225 30.6955.7635 1.6006h-.9723l-.6915-1.5216h-.6792l-.2633 1.5216h-.9214l.6915-3.9314h1.9148c.6406 0 1.1741.2914 1.1741.9829 0 .7529-.4212 1.1794-1.0162 1.3479zm-1.2742-1.6621-.186 1.0724h.853c.4773 0 .7073-.3265.7073-.6968 0-.2755-.1966-.3756-.4879-.3756h-.8881z"></path><path d="m66.6389 29.056h-2.1342l-.1404.8424h2.0218l-.1228.6792h-2.0271l-.1685 1.0285h2.157l-.1176.6915h-3.0837l.6915-3.9314h3.0486l-.1229.6915z"></path><path d="m66.6611 32.0659.0948-.8196c.5441.3089 1.1057.4388 1.5445.4388.516 0 .8652-.2071.8652-.5722 0-.2702-.2983-.3317-.7125-.4036-.5283-.0895-1.3199-.2422-1.3199-1.0162 0-.9267.8934-1.4216 1.9201-1.4216.4493 0 .9214.0895 1.2865.2352l-.0896.7406c-.4387-.186-.8371-.2755-1.2864-.2755-.4879 0-.8986.179-.8986.523 0 .2351.2808.3036.6564.3755.5949.1124 1.3707.2703 1.3707 1.0952 0 .9091-.7582 1.4269-1.8305 1.4269-.5055 0-1.0285-.1123-1.6007-.3265z"></path><path d="m73.3166 28.3647c.6283 0 1.1057.3195 1.1057 1.0215 0 .8933-.5616 1.5339-1.5673 1.5339h-1.0442l-.2352 1.376h-.9267l.6915-3.9314zm-.5388 1.8762c.5002 0 .7407-.3931.7407-.7863 0-.3088-.2071-.4159-.5055-.4159h-.8758l-.2071 1.2022z"></path><path d="m74.9453 30.8129c0-1.3531.7459-2.5448 2.3307-2.5448 1.1566 0 1.7024.6177 1.7024 1.5778 0 1.3531-.7476 2.5378-2.3307 2.5378-1.1566 0-1.7024-.6125-1.7024-1.5725zm3.1223-.9319c0-.5511-.2633-.8881-.8425-.8881-1.0109 0-1.3654 1.0724-1.3654 1.7796 0 .5511.258.8864.8319.8864 1.0285 0 1.376-1.0899 1.376-1.7797z"></path><path d="m82.7113 28.3647h.8652l-.6915 3.9314h-.8757l-1.2409-2.594-.4493 2.594h-.8757l.6915-3.9314h.9214l1.2127 2.5326.444-2.5326z"></path><path d="m83.6558 32.0659.0947-.8196c.5441.3089 1.1057.4388 1.5445.4388.516 0 .8652-.2071.8652-.5722 0-.2702-.2983-.3317-.7125-.4036-.5283-.0895-1.3198-.2422-1.3198-1.0162 0-.9267.8933-1.4216 1.92-1.4216.4493 0 .9214.0895 1.2865.2352l-.0895.7406c-.4388-.186-.8372-.2755-1.2865-.2755-.4879 0-.8986.179-.8986.523 0 .2351.2808.3036.6564.3755.595.1124 1.3707.2703 1.3707 1.0952 0 .9091-.7582 1.4269-1.8305 1.4269-.5055 0-1.0285-.1123-1.6006-.3265z"></path><path d="m90.2092 29.0334h-.6406l-.4441 2.594h.6231l-.1176.6687h-2.1798l.1123-.6687h.6459l.444-2.594h-.6283l.1176-.6687h2.1798z"></path><path d="m93.8439 31.0324c0 .8039-.5231 1.2637-1.5726 1.2637h-1.9095l.6915-3.9314h1.7463c.6353 0 1.2022.1861 1.2022.8144 0 .4949-.258.86-.7582 1.0337.3598.1229.6003.3879.6003.8196zm-1.6007.5845c.5231 0 .7126-.3545.7126-.6354 0-.2808-.2071-.3755-.516-.3755h-.853l-.1684 1.0109zm.3598-2.5782h-.7529l-.1509.9214h.7301c.3878 0 .6406-.2475.6406-.5897 0-.2703-.2194-.3317-.4669-.3317z"></path><path d="m95.439 31.5835h1.9095l-.1229.7126h-2.8467l.6915-3.9314h.9267l-.5564 3.2171z"></path><path d="m101.482 29.056h-2.1345l-.1404.8424h2.0219l-.123.6792h-2.027l-.1685 1.0285h2.1565l-.117.6915h-3.0838l.6915-3.9314h3.0503l-.123.6915z"></path><path d="m105.464 28.3647c1.236 0 1.69.6687 1.69 1.527 0 1.0214-.516 2.4044-2.336 2.4044h-1.662l.692-3.9314h1.618zm-.591 3.2241c1.067 0 1.376-.9776 1.376-1.6796 0-.623-.332-.8372-.881-.8372h-.73l-.432 2.515h.668z"></path><path d="m110.187 29.0334h-.641l-.444 2.594h.623l-.117.6687h-2.18l.112-.6687h.646l.444-2.594h-.628l.117-.6687h2.18z"></path><path d="m113.82 28.3647h.955l-2.201 3.9314h-.994l-.819-3.9314h.921l.557 2.9486 1.583-2.9486z"></path><path d="m118.336 29.056h-2.135l-.14.8424h2.022l-.123.6792h-2.027l-.169 1.0285h2.157l-.117.6915h-3.084l.692-3.9314h3.048l-.123.6915z"></path><path d="m121.251 30.6955.763 1.6006h-.972l-.691-1.5216h-.68l-.263 1.5216h-.921l.691-3.9314h1.915c.641 0 1.174.2914 1.174.9829 0 .7529-.421 1.1794-1.016 1.3479zm-1.276-1.6621-.186 1.0724h.853c.477 0 .707-.3265.707-.6968 0-.2755-.196-.3756-.488-.3756h-.888z"></path><path d="m122.536 32.0659.094-.8196c.544.3089 1.106.4388 1.545.4388.516 0 .865-.2071.865-.5722 0-.2702-.298-.3317-.712-.4036-.529-.0895-1.32-.2422-1.32-1.0162 0-.9267.893-1.4216 1.92-1.4216.449 0 .921.0895 1.286.2352l-.089.7406c-.439-.186-.837-.2755-1.287-.2755-.488 0-.898.179-.898.523 0 .2351.281.3036.656.3755.595.1124 1.371.2703 1.371 1.0952 0 .9091-.758 1.4269-1.831 1.4269-.505 0-1.028-.1123-1.6-.3265z"></path><path d="m129.091 29.0334h-.641l-.444 2.594h.623l-.117.6687h-2.18l.112-.6687h.646l.444-2.594h-.628l.118-.6687h2.179z"></path><path d="m133.173 28.3647-.117.6915h-1.315l-.562 3.2399h-.916l.557-3.2399h-1.287l.118-.6915h3.52z"></path><path d="m137.503 28.3647-1.983 2.5221-.243 1.4093h-.914l.247-1.4374-1.072-2.494h.965l.697 1.6902 1.297-1.6902z"></path></g><g clip-path="url(#a)"><g fill="#06599c"><path d="m60.6318 10.9231h4.0367l-2.5204 14.3436h-3.2376l1.7417-9.9585-4.5284 6.557h-2.5409l-2.254-6.6595-1.7622 10.061h-3.2376l2.5204-14.3436h3.9547l2.5204 7.889z"></path><path d="m67.7625 20.9636c-.0205.1844-.0205.3483-.0205.5122 0 1.3115.6762 1.8442 2.2335 1.8442 1.1884 0 2.6228-.2459 4.3236-.6352l-.2459 2.2745c-1.5164.4303-2.9917.6557-4.3031.6557-3.2786 0-5.2457-1.4753-5.2457-4.2826 0-2.4179 1.3524-6.6595 6.5571-6.6595 3.1966 0 4.467 1.6802 4.467 4.0776 0 .8402-.1434 1.5369-.3074 2.2745zm.3278-1.8442h4.508v-.0615c.041-.2664.123-.6147.123-.9631 0-.6967-.2869-1.4343-1.6598-1.4343-1.6598 0-2.5409 1.127-2.9712 2.4589z"></path><path d="m76.0205 25.2667 2.5204-14.3436h3.2785l-2.5203 14.3436z"></path><path d="m81.061 24.7339.2254-2.254c1.5573.7991 3.1147 1.168 4.3236 1.168 1.4549 0 2.4384-.5328 2.4384-1.4344 0-.6967-.8811-.8811-1.9876-1.086-1.4343-.2459-3.7293-.6762-3.7293-2.7048 0-2.4794 2.5408-3.7498 5.6555-3.7498 1.4138 0 2.8277.2458 3.9342.6147l-.2049 2.0696c-1.209-.4713-2.5204-.7172-3.5654-.7172-1.3729 0-2.5204.4713-2.5204 1.3934 0 .5122.6352.6762 1.5573.8606 1.4139.2459 4.1597.7377 4.1597 2.9917 0 2.4384-2.2745 3.7293-5.3686 3.7293-1.5778 0-3.2786-.3483-4.9179-.8811z"></path><path d="m97.7203 17.1318-.8196 4.5695c-.0615.3483-.082.5123-.082.6762 0 .7581.4508 1.1885 1.5983 1.1885.4508 0 .9016-.0615 1.127-.1025l-.1639 2.0081c-.6557.1025-1.127.1434-1.6393.1434-2.7663 0-4.1801-1.1065-4.1801-3.0531 0-.3074.0409-.6557.1024-.9426l.7787-4.4875h-1.9262l.3689-2.1106h1.9261l.4713-2.6638h3.2785l-.4712 2.6638h3.0528l-.369 2.1106z"></path><path d="m111.898 17.685c0 .2254-.02.4508-.061.7377l-1.209 6.844h-3.115l.205-1.1885c-1.7 1.1885-2.807 1.5368-4.036 1.5368-1.865 0-3.074-1.127-3.074-2.8073 0-1.8032 1.209-3.9137 5-3.9137h2.868l.062-.3484c.061-.3688.123-.6352.123-.8196 0-.4508-.267-.9836-1.762-.9836-1.148 0-2.521.2254-4.467.7582l.225-2.1925c1.455-.3689 3.156-.6352 4.631-.6352 2.52 0 4.61.7991 4.61 3.0121zm-7.048 5.8809c.963 0 1.885-.5737 3.073-1.4139l.246-1.5163h-2.233c-1.455 0-2.316.9221-2.316 1.9466 0 .7172.553.9836 1.23.9836z"></path></g><g fill="#908f96"><path d="m112.472 21.0865c0-3.5859 2.582-6.4136 6.557-6.4136 1.332 0 2.623.3278 3.73.8606l-.205 2.1105c-1.189-.5737-2.193-.7171-3.053-.7171-2.89 0-3.812 2.2949-3.812 4.3235 0 1.5573.881 2.1311 2.316 2.1311.983 0 2.213-.2664 3.524-.8196l-.246 2.2744c-1.311.5328-2.664.7787-3.832.7787-2.766 0-4.979-1.4139-4.979-4.5285z"></path><path d="m122.472 21.2095c0-2.3975 1.311-6.5161 6.577-6.5161 3.709 0 5.021 2.0491 5.021 4.426s-1.271 6.4956-6.599 6.4956c-3.667 0-4.999-2.0081-4.999-4.4055zm8.38-2.3155c0-1.3524-.655-1.9671-1.905-1.9671-2.521 0-3.258 2.7048-3.258 4.4875 0 1.3524.635 1.9671 1.885 1.9671 2.52 0 3.278-2.7253 3.278-4.4875z"></path><path d="m143.823 14.7548-.246 2.336c-.307-.082-.696-.1025-.963-.1025-1.373 0-2.746.6967-3.934 1.6598l-1.168 6.6186h-3.258l1.803-10.2455h3.115l-.226 1.2909c1.619-1.1065 2.767-1.6392 4.099-1.6392.327 0 .553.0409.778.0819z"></path><path d="m154.806 18.7505c0 2.5614-1.352 6.8645-5.43 6.8645-1.271 0-2.131-.4303-3.074-1.3114l-.819 4.6514h-3.279l2.48-13.9338h3.012l-.144.7582c1.558-.9221 2.316-1.1065 3.32-1.1065 2.889 0 3.934 1.8646 3.934 4.0776zm-3.217.205c0-1.2295-.492-2.0286-1.803-2.0286-.738 0-1.373.2458-2.336.8401l-.84 4.7949c.45.5122 1.024.8196 1.803.8196 2.274 0 3.176-2.6024 3.176-4.426z"></path></g></g></svg>