<svg id="Layer_1" data-name="Layer 1" xmlns="http://www.w3.org/2000/svg" width="100%" height="100%" viewBox="0 0 350.73 173.83">
  <defs>
    <style>
      .cls-1 {
        fill: #60bb46;
      }

      .cls-2 {
        fill: #9e2d33;
      }

      .cls-3 {
        fill: #2f479d;
      }
    </style>
  </defs>
  <title>HunasFalls Logo-new</title>
  <g>
    <path class="cls-1" d="M425.13,262.87s-17,21.81-7.78,40.73c6.61,13.59,17.64,22.41,13,36.75s-10.81,39.14,4.54,56c0,0-11.09-23.6-2.07-40,10.84-19.79,13-30.41-6.57-56.58-9.4-12.57-3.2-34-1.11-36.89" transform="translate(-245.58 -222.56)"/>
    <path class="cls-2" d="M442.71,345.06s17-20,7.73-37.37c-6.63-12.47-17.89-19.16-13.05-33.73,4.39-13.2,10.76-35.9-4.61-51.4,0,0,9.28,21.76,1.13,36.67-10.06,18.39-10.12,27.62,7.64,52,8.65,11.84,3.24,31.23,1.16,33.86" transform="translate(-245.58 -222.56)"/>
    <path class="cls-3" d="M454.89,266.76s-11,15.6-5.09,29.11c4.27,9.71,11.4,16,8.38,26.25s-7.05,28,2.88,40c0,0-7.16-16.85-1.31-28.61,7.05-14.14,7.27-21.47-4.19-40.42-5.57-9.21-2-24.32-.67-26.36" transform="translate(-245.58 -222.56)"/>
    <path d="M270.19,281.05c.29-.29.83-.3,1.63,0a3,3,0,0,1,1.67,2.37c.32,1.31.38,2.07.19,2.28a5.23,5.23,0,0,0-.69,1.39c-.27.7-.79,2.09-1.57,4.15s-2.29,6-4.55,11.85-3.72,9.62-4.41,11.3-.66,2.38.11,2.07a10.68,10.68,0,0,1,2.41-.63c.85-.13,2.14-.35,3.86-.69s3.85-.87,6.41-1.6a19.48,19.48,0,0,0,4.44-1.57,7,7,0,0,0,1.4-2.75q.8-2.31,3.28-10.38c1.64-5.39,2.51-8.29,2.58-8.7s.33-.54.79-.4a6.65,6.65,0,0,1,1.57.8,2.41,2.41,0,0,1,1.07,1.57c.12.66.22,1.25.29,1.78a24.89,24.89,0,0,1-1.06,5.35q-1.17,4.55-1.68,7.12c-.33,1.72-.41,2.7-.21,3s1,.17,2.58-.22,2.31.24,2.36,1.89-.84,2.74-2.68,3.27-3,.91-3.57,1.12-1,1-1.49,2.41-1.48,4.31-3.08,8.72-2.72,7.43-3.38,9a24.6,24.6,0,0,1-2.87,5.05c-1.26,1.76-1.58,1.16-1-1.8s1-4.81,1.28-5.53a26.1,26.1,0,0,0,.77-3.57c.26-1.64.6-3.39,1-5.23s.71-3.46.9-4.84-1.42-1.57-4.84-.56l-9.84,2.9c-3.13.92-5,2.07-5.68,3.46s-1.9,4.84-3.73,10.39-3,9.1-3.48,10.66a7.22,7.22,0,0,1-1.91,3.33c-.78.65-1.47.65-2.05,0a15.76,15.76,0,0,0-1.38-1.41q-.51-.44,2.25-9.09T251.64,328c.63-1.72.47-2.77-.51-3.16a2.35,2.35,0,0,1-1.65-1.76,5.58,5.58,0,0,1,.11-2.27c.2-.72.92-1.44,2.18-2.18a24.8,24.8,0,0,0,2.77-1.77,7.29,7.29,0,0,0,1.78-2.77c.6-1.38,1.2-2.82,1.78-4.33s1.71-4.47,3.37-8.88,3.32-8.7,4.95-12.84,2.59-6.3,2.9-6.44a3.57,3.57,0,0,0,.87-.58" transform="translate(-245.58 -222.56)"/>
    <path d="M313.32,315a2.93,2.93,0,0,1,1.94-.43,1.54,1.54,0,0,1,1.14.77c.22.41,0,1.95-.63,4.63a55.67,55.67,0,0,0-1.28,6.83c-.22,1.88,0,3.2.53,4s1.55,1,3,.82a8.51,8.51,0,0,0,4.54-2.81q2.46-2.51.56-.24c-1.25,1.51-2.42,2.87-3.5,4.06a8.57,8.57,0,0,1-2.85,2.3,5.41,5.41,0,0,1-2.84.2,4.6,4.6,0,0,1-2.64-1.27,7.38,7.38,0,0,1-1.59-2.42,5.66,5.66,0,0,1-.11-3.45,28.62,28.62,0,0,0,.62-3.54c.08-1-.32-.94-1.2.16s-2,2.29-3.27,3.59a28.64,28.64,0,0,1-4.12,3.42,15.66,15.66,0,0,1-3.43,1.92,13.39,13.39,0,0,1-2.5.61,3.36,3.36,0,0,1-2.32-.45,2.82,2.82,0,0,1-1.32-2,9.21,9.21,0,0,1,.53-4c.53-1.8,1.43-4.23,2.69-7.32s.89-4.73-1.09-4.94a10.06,10.06,0,0,1-4.47-1.31q-1.49-1,1.8.27t4.58-.24a4.88,4.88,0,0,1,2.37-1.75,3.43,3.43,0,0,1,2.06.1,2,2,0,0,1,1.29,1.31,3.79,3.79,0,0,1-.11,2.21c-.26.84-1.18,3.08-2.71,6.69s-1.59,5.21-.14,4.79,4.06-2.52,7.82-6.27,6-5.82,6.7-6.17" transform="translate(-245.58 -222.56)"/>
    <path d="M328.41,311.47a3.43,3.43,0,0,1,2.85.21c1.15.5,1.41,1.41.74,2.76s-1.72,3.57-3.21,6.67-1.64,4-.45,2.56a37.8,37.8,0,0,1,4.3-4.28,27.84,27.84,0,0,1,3.65-2.82,8.87,8.87,0,0,1,2.42-1,5.71,5.71,0,0,1,3,.16,4.91,4.91,0,0,1,2.81,2.69q1.17,2.21,1.25,7.28t2.5,5a8.48,8.48,0,0,0,4.71-1.78,13.47,13.47,0,0,0,3.4-3.4c.75-1.16,1.07-1.46,1-.93a7.33,7.33,0,0,1-1.22,2.33,35.61,35.61,0,0,1-4.52,4.79q-3.46,3.25-6,3.3a3.77,3.77,0,0,1-3.67-2,17,17,0,0,1-1.49-6.62c-.23-3-.63-4.57-1.2-4.63s-1.81.51-3.72,1.7a22.28,22.28,0,0,0-5.27,4.66q-2.39,2.86-3.9,4.86a6.77,6.77,0,0,1-2.74,2.43,1.6,1.6,0,0,1-2-.65,3.35,3.35,0,0,1-.54-2.6c.16-1,.47-2.6.93-4.73a52.92,52.92,0,0,1,2-6.73q1.28-3.54-.58-2.32a39.12,39.12,0,0,0-4.55,3.7q-2.69,2.48,1.91-2.33c3.07-3.21,4.77-5.09,5.11-5.62s.67-1,1-1.46a4.08,4.08,0,0,1,1.59-1.19" transform="translate(-245.58 -222.56)"/>
    <path d="M372.23,310.67a6.66,6.66,0,0,1,2.69-.11,4.88,4.88,0,0,1,2.34.91,6.59,6.59,0,0,1,1.68,2.7c.53,1.35.28,2.26-.72,2.72a2.29,2.29,0,0,1-2.74-.48,2.05,2.05,0,0,0-2.55-.48c-.9.46-1.77.93-2.64,1.41a23.7,23.7,0,0,0-3.22,2.26,30.29,30.29,0,0,0-3.93,3.93,14.55,14.55,0,0,0-2.23,3.06c-.15.44.2.39,1-.19l3.82-2.58a48.58,48.58,0,0,1,6.49-3.53c2.61-1.21,4.25-1.67,4.95-1.41a3.9,3.9,0,0,1,1.77,1.46,4.39,4.39,0,0,1,.85,1.84,1.58,1.58,0,0,1-.23,1.22,7.08,7.08,0,0,0-.8,2.05,4.94,4.94,0,0,0,.08,3.09,4,4,0,0,0,1.35,2,3.12,3.12,0,0,0,2.26.32,7.78,7.78,0,0,0,3.54-2.18q2.1-1.94-.19.9a15.88,15.88,0,0,1-3.61,3.62,4.38,4.38,0,0,1-2.07.75,6.51,6.51,0,0,1-1.94-.49,7.17,7.17,0,0,1-2.27-1.4,6.66,6.66,0,0,1-1.67-2.35c-.41-.92-.68-1.6-.83-2a3.8,3.8,0,0,0-1-1.46,1.57,1.57,0,0,0-1.88-.35,23.44,23.44,0,0,0-3.92,2.47,46.22,46.22,0,0,1-5.21,3.33,19.64,19.64,0,0,1-4.33,1.8,6,6,0,0,1-2.47.35,2.65,2.65,0,0,1-1.22-1.2,4.7,4.7,0,0,1-.77-2.26,5.47,5.47,0,0,1,.34-2.47,25.44,25.44,0,0,1,3.4-5,44.73,44.73,0,0,1,5.7-6.15,31.91,31.91,0,0,1,5.82-4.07,28.08,28.08,0,0,1,4.3-2" transform="translate(-245.58 -222.56)"/>
    <path d="M399.08,311a14.39,14.39,0,0,1,4.26-1.37c1.42-.21,2.27,0,2.58.8a2,2,0,0,1-.43,2.17,3.35,3.35,0,0,1-2.39,1.2,5.37,5.37,0,0,0-3.27,2.18,8.49,8.49,0,0,0-2,4.83,10,10,0,0,0,.13,3.87,24.62,24.62,0,0,1,.88,4.14,8.68,8.68,0,0,1-.64,5.29,9.58,9.58,0,0,1-2.39,3.22,8.47,8.47,0,0,1-3.17,1.49,13.41,13.41,0,0,1-3.21.48,7.28,7.28,0,0,1-2.85-.64,3.18,3.18,0,0,1-1.86-2.63q-.34-2,5.58-7.4t.93-.31q-5,5.07-3.91,6.3a2.18,2.18,0,0,0,2.61.63,6,6,0,0,0,2.39-1.56,6.26,6.26,0,0,0,1.31-2.4,8,8,0,0,0,.37-2.6,51.36,51.36,0,0,0-.83-5.32c-.51-2.75-.51-4.81,0-6.2a10,10,0,0,1,2.29-3.58,14.29,14.29,0,0,1,3.64-2.59" transform="translate(-245.58 -222.56)"/>
    <path d="M493.35,281.26c1.06-.25,1.71-.2,1.92.13a7.32,7.32,0,0,1,.64,2,4.87,4.87,0,0,1,0,2.47c-.22.65-.49,1.42-.83,2.28s-.23,1.33.32,1.36,2.71-.52,6.46-1.7,6.24-1.74,7.45-1.7a5.07,5.07,0,0,1,3.18,1.2,17.64,17.64,0,0,1,2,1.88,2.85,2.85,0,0,1,.29,2.45,9.7,9.7,0,0,1-1.51,3.43,6.58,6.58,0,0,1-2.77,2.42c-1.07.46-2.66,1.27-4.79,2.42a50,50,0,0,1-8.93,3.5q-5.74,1.8,3.77-2.3t10.77-6c.83-1.28,1-2.17.4-2.69s-1.64-.64-3.2-.37l-5.87,1a37.79,37.79,0,0,0-6.59,1.68,8.34,8.34,0,0,0-4.07,2.53,30.58,30.58,0,0,0-2,3.42,34,34,0,0,0-1.92,4.44,14,14,0,0,0-.9,3.12c0,.44.52.44,1.62,0a40.56,40.56,0,0,1,7.53-1.52,92.93,92.93,0,0,1,11.38-1c3.66-.07,5.45,0,5.34.22s-1.11.47-3,.79a62.66,62.66,0,0,0-6.48,1.49,67.39,67.39,0,0,0-7.07,2.37,62.23,62.23,0,0,0-5.83,2.6,21.51,21.51,0,0,1-4,1.7c-1.1.3-2.18,2.86-3.25,7.66s-1.84,7.92-2.34,9.33a36.27,36.27,0,0,0-1.11,3.8,6.08,6.08,0,0,1-1,2.46,3.79,3.79,0,0,1-1.43,1.08,1.74,1.74,0,0,1-1.73-.37c-.63-.46-.8-1.42-.53-2.87s.5-3,.71-4.74.56-3.9,1.07-6.59.91-4.76,1.25-6.19-.06-2.09-1.17-1.94a3.62,3.62,0,0,1-2.74-.61,2.15,2.15,0,0,1-1-1.82c0-.65.72-1.11,2-1.38a8.43,8.43,0,0,0,3.32-1.35q1.33-1,3.81-7.45c1.64-4.32,2.9-7.72,3.75-10.21a67.16,67.16,0,0,1,2.95-7.23,43,43,0,0,1,2.13-4.17,3.37,3.37,0,0,1,2-1" transform="translate(-245.58 -222.56)"/>
    <path d="M524.19,310.67a6.66,6.66,0,0,1,2.69-.11,4.84,4.84,0,0,1,2.34.91,6.38,6.38,0,0,1,1.67,2.7c.54,1.35.3,2.26-.71,2.72a2.31,2.31,0,0,1-2.75-.48,2,2,0,0,0-2.55-.48c-.88.46-1.76.93-2.63,1.41A23.1,23.1,0,0,0,519,319.6a29.7,29.7,0,0,0-3.94,3.93,14.55,14.55,0,0,0-2.23,3.06c-.14.44.2.39,1-.19l3.83-2.58a48.39,48.39,0,0,1,6.48-3.53c2.6-1.21,4.25-1.67,4.95-1.41a4,4,0,0,1,1.78,1.46,4.66,4.66,0,0,1,.85,1.84,1.58,1.58,0,0,1-.24,1.22,7.08,7.08,0,0,0-.8,2.05,5,5,0,0,0,.08,3.09,4,4,0,0,0,1.36,2,3.1,3.1,0,0,0,2.26.32,7.76,7.76,0,0,0,3.53-2.18q2.1-1.94-.18.9a16.28,16.28,0,0,1-3.62,3.62,4.34,4.34,0,0,1-2.08.75,6.61,6.61,0,0,1-1.93-.49,7,7,0,0,1-2.26-1.4,6.66,6.66,0,0,1-1.67-2.35,19.9,19.9,0,0,1-.83-2,4.09,4.09,0,0,0-1-1.46,1.58,1.58,0,0,0-1.89-.35,24,24,0,0,0-3.9,2.47,46.28,46.28,0,0,1-5.22,3.33,19.64,19.64,0,0,1-4.33,1.8,6,6,0,0,1-2.47.35,2.6,2.6,0,0,1-1.22-1.2,4.92,4.92,0,0,1-.77-2.26,5.48,5.48,0,0,1,.35-2.47,25,25,0,0,1,3.4-5,44.69,44.69,0,0,1,5.68-6.15,32.69,32.69,0,0,1,5.83-4.07,27.63,27.63,0,0,1,4.3-2" transform="translate(-245.58 -222.56)"/>
    <path d="M553.17,295.09c1.42-2.23,2.59-3.14,3.54-2.71s1.44,1,1.51,1.64-1.46,4.13-4.6,10.37a89.78,89.78,0,0,0-6.81,17.42c-1.39,5.36-1.88,8.39-1.46,9.07s1.19.86,2.29.58,3.9-1.82,8.4-4.6a94.58,94.58,0,0,0,8.3-5.48q1.54-1.31-2,2t-5.29,4.89c-1.19,1.08-2.36,2.25-3.54,3.51a16.6,16.6,0,0,1-4.28,3.27,11,11,0,0,1-4.41,1.52,3.21,3.21,0,0,1-2.77-.88,14.91,14.91,0,0,1-1.67-2.45c-.53-1-.58-2.72-.13-5.28A90.63,90.63,0,0,1,544,315.35a123.74,123.74,0,0,1,5-12.85,72.85,72.85,0,0,1,4.15-7.41" transform="translate(-245.58 -222.56)"/>
    <path d="M572.31,295.09c1.42-2.23,2.6-3.14,3.54-2.71s1.44,1,1.51,1.64-1.46,4.13-4.6,10.37a89.06,89.06,0,0,0-6.8,17.42c-1.41,5.36-1.89,8.39-1.47,9.07s1.2.86,2.29.58,3.9-1.82,8.4-4.6a92.93,92.93,0,0,0,8.3-5.48q1.54-1.31-2,2c-2.34,2.18-4.11,3.81-5.29,4.89s-2.36,2.25-3.54,3.51A16.43,16.43,0,0,1,568.4,335a11,11,0,0,1-4.41,1.52,3.21,3.21,0,0,1-2.77-.88,14.32,14.32,0,0,1-1.67-2.45c-.53-1-.58-2.72-.13-5.28a90.63,90.63,0,0,1,3.69-12.58,121.06,121.06,0,0,1,5.06-12.85,71,71,0,0,1,4.14-7.41" transform="translate(-245.58 -222.56)"/>
    <path d="M589.33,311a14.24,14.24,0,0,1,4.25-1.37c1.42-.21,2.28,0,2.58.8a2,2,0,0,1-.43,2.17,3.33,3.33,0,0,1-2.39,1.2,5.37,5.37,0,0,0-3.27,2.18,8.49,8.49,0,0,0-2,4.83,9.79,9.79,0,0,0,.14,3.87,26.89,26.89,0,0,1,.88,4.14,8.67,8.67,0,0,1-.65,5.29,9.58,9.58,0,0,1-2.39,3.22,8.4,8.4,0,0,1-3.17,1.49,13.35,13.35,0,0,1-3.22.48,7.28,7.28,0,0,1-2.84-.64,3.17,3.17,0,0,1-1.85-2.63q-.36-2,5.58-7.4t.92-.31q-5,5.07-3.9,6.3a2.16,2.16,0,0,0,2.6.63,6.07,6.07,0,0,0,2.4-1.56,6.38,6.38,0,0,0,1.3-2.4,7.77,7.77,0,0,0,.37-2.6,48.59,48.59,0,0,0-.83-5.32c-.51-2.75-.51-4.81,0-6.2a10,10,0,0,1,2.29-3.58,14.17,14.17,0,0,1,3.65-2.59" transform="translate(-245.58 -222.56)"/>
  </g>
</svg>
