<?xml version="1.0" encoding="UTF-8"?>
<svg id="Layer_1" xmlns="http://www.w3.org/2000/svg" version="1.1" viewBox="0 0 192 119">
  <!-- Generator: Adobe Illustrator 29.1.0, SVG Export Plug-In . SVG Version: 2.1.0 Build 142)  -->
  <defs>
    <style>
      .st0 {
        fill: #fff;
      }
    </style>
  </defs>
  <path class="st0" d="M18,50h-7.7v20.9h-2.1v-20.9H.5v-2h17.5v2Z"/>
  <path class="st0" d="M24.1,71v-22.9h14.3v2h-12.2v8.4h10.7v2h-10.7v8.5h12.2v2h-14.3Z"/>
  <path class="st0" d="M62.3,71l-2.7-6.5h-11.7l-2.7,6.5h-2.2l9.7-22.9h2.5l9.6,22.9h-2.4ZM58.8,62.5l-5.1-12.2-5.1,12.2h10.2Z"/>
  <path class="st0" d="M71.1,71v-22.9h7.9c2.3,0,4.2.6,5.7,1.8,1.4,1.2,2.1,2.8,2.1,4.8,0,3.3-2.3,5.8-5.9,6.4l6.2,9.9h-2.5l-6-9.7h-5.4v9.7h-2.1ZM73.3,50v9.4h6c3.3,0,5.4-1.9,5.4-4.7s-2.1-4.7-5.4-4.7h-6Z"/>
  <path class="st0" d="M95,71v-22.9h6.5c3.9,0,7,1,9.4,3.1,2.4,2.1,3.5,4.9,3.5,8.3s-1.1,6.2-3.4,8.3c-2.3,2.1-5.3,3.2-9,3.2h-7ZM97.2,50.1v18.9h4.5c3.2,0,5.7-.9,7.6-2.6,1.9-1.7,2.9-4,2.9-6.8s-1-5.1-2.9-6.9c-1.9-1.7-4.5-2.6-7.7-2.6h-4.4Z"/>
  <path class="st0" d="M122.2,71v-22.9h7.9c2.3,0,4.2.6,5.7,1.8,1.4,1.2,2.1,2.8,2.1,4.8,0,3.3-2.3,5.8-5.9,6.4l6.2,9.9h-2.5l-6-9.7h-5.4v9.7h-2.1ZM124.4,50v9.4h6c3.3,0,5.4-1.9,5.4-4.7s-2.1-4.7-5.4-4.7h-6Z"/>
  <path class="st0" d="M163.9,51.1c2.3,2.3,3.4,5.2,3.4,8.4s-1.1,6-3.4,8.3c-2.3,2.3-5,3.5-8.2,3.5s-5.9-1.1-8.2-3.5c-2.3-2.3-3.4-5.1-3.4-8.3s1.1-6.1,3.4-8.4c2.3-2.3,5-3.5,8.2-3.5s6,1.1,8.2,3.5ZM162.4,66.4c1.8-1.9,2.8-4.2,2.8-6.9s-.9-5-2.8-7c-1.8-1.9-4-2.9-6.7-2.9s-4.8,1-6.6,2.9c-1.8,1.9-2.8,4.3-2.8,7s.9,5,2.8,6.9c1.8,1.9,4,2.9,6.6,2.9s4.8-1,6.7-2.9Z"/>
  <path class="st0" d="M175.2,71v-22.9h7.9c2.5,0,4.5.6,6.1,1.9,1.5,1.3,2.3,3,2.3,5.1s-.8,3.8-2.3,5c-1.5,1.3-3.6,1.9-6.2,1.9h-5.7v9h-2.1ZM177.3,50v10.1h6c3.6,0,6-2,6-5s-2.4-5-6-5c0,0-6,0-6,0Z"/>
</svg>